<svg xmlns="http://www.w3.org/2000/svg" width="1600" height="640" viewBox="0 0 1600 640" role="img" aria-label="Company AI Assistant banner">
<defs>
  <linearGradient id="gradB" x1="0" y1="0" x2="1" y2="1">
    <stop offset="0" stop-color="#f59e0b"/><stop offset="1" stop-color="#14b8a6"/></linearGradient>
  <linearGradient id="bggB" x1="0" y1="0" x2="0.6" y2="1">
    <stop offset="0" stop-color="#252424"/><stop offset="1" stop-color="#17120a"/></linearGradient>
  <radialGradient id="glowB" cx="0.5" cy="0.5" r="0.5">
    <stop offset="0" stop-color="#f59e0b" stop-opacity="0.55"/>
    <stop offset="0.55" stop-color="#14b8a6" stop-opacity="0.12"/>
    <stop offset="1" stop-color="#f59e0b" stop-opacity="0"/></radialGradient>
  <filter id="blurB" x="-60%" y="-60%" width="220%" height="220%">
    <feGaussianBlur stdDeviation="9"/></filter>
  <linearGradient id="sheenB" x1="0" y1="0" x2="0" y2="1">
    <stop offset="0" stop-color="#ffffff" stop-opacity="0.10"/>
    <stop offset="0.45" stop-color="#ffffff" stop-opacity="0"/></linearGradient>
  <pattern id="gridB" width="32" height="32" patternUnits="userSpaceOnUse">
    <path d="M32 0H0V32" fill="none" stroke="#f59e0b" stroke-opacity="0.05" stroke-width="1"/></pattern>
</defs>
<rect width="1600" height="640" fill="url(#bggB)"/>
<rect width="1600" height="640" fill="url(#gridB)"/>
<circle cx="1230" cy="150" r="430" fill="url(#glowB)"/>
<g transform="translate(990.00 50.00) scale(23.3333)" fill="#f59e0b" opacity="0.07"><path d="M18.68 12.32a4.49 4.49 0 0 0-6.36.01a4.49 4.49 0 0 0 0 6.36a4.51 4.51 0 0 0 5.57.63L21 22.39L22.39 21l-3.09-3.11c1.13-1.77.87-4.09-.62-5.57m-1.41 4.95c-.98.98-2.56.97-3.54 0c-.97-.98-.97-2.56.01-3.54c.97-.97 2.55-.97 3.53 0c.97.98.97 2.56 0 3.54M10.9 20.1a6.5 6.5 0 0 1-1.48-2.32C6.27 17.25 4 15.76 4 14v3c0 2.21 3.58 4 8 4c-.4-.26-.77-.56-1.1-.9M4 9v3c0 1.68 2.07 3.12 5 3.7v-.2c0-.93.2-1.85.58-2.69C6.34 12.3 4 10.79 4 9m8-6C7.58 3 4 4.79 4 7c0 2 3 3.68 6.85 4h.05c1.2-1.26 2.86-2 4.6-2c.91 0 1.81.19 2.64.56A3.22 3.22 0 0 0 20 7c0-2.21-3.58-4-8-4"/></g>
<circle cx="1270" cy="330" r="250" fill="none" stroke="#f59e0b" stroke-opacity="0.10" stroke-width="2"/>
<circle cx="1270" cy="330" r="320" fill="none" stroke="#f59e0b" stroke-opacity="0.06" stroke-width="2"/>
<rect x="110" y="150" width="150" height="150" rx="36" fill="#ffffff" fill-opacity="0.04"/>
<rect x="110" y="150" width="150" height="150" rx="36" fill="none" stroke="url(#gradB)" stroke-opacity="0.55" stroke-width="2"/>
<rect x="110" y="150" width="150" height="150" rx="36" fill="url(#sheenB)"/>
<g filter="url(#blurB)" opacity="0.45"><g transform="translate(139.00 187.00) scale(3.8333)" fill="#000000"><path d="M18.68 12.32a4.49 4.49 0 0 0-6.36.01a4.49 4.49 0 0 0 0 6.36a4.51 4.51 0 0 0 5.57.63L21 22.39L22.39 21l-3.09-3.11c1.13-1.77.87-4.09-.62-5.57m-1.41 4.95c-.98.98-2.56.97-3.54 0c-.97-.98-.97-2.56.01-3.54c.97-.97 2.55-.97 3.53 0c.97.98.97 2.56 0 3.54M10.9 20.1a6.5 6.5 0 0 1-1.48-2.32C6.27 17.25 4 15.76 4 14v3c0 2.21 3.58 4 8 4c-.4-.26-.77-.56-1.1-.9M4 9v3c0 1.68 2.07 3.12 5 3.7v-.2c0-.93.2-1.85.58-2.69C6.34 12.3 4 10.79 4 9m8-6C7.58 3 4 4.79 4 7c0 2 3 3.68 6.85 4h.05c1.2-1.26 2.86-2 4.6-2c.91 0 1.81.19 2.64.56A3.22 3.22 0 0 0 20 7c0-2.21-3.58-4-8-4"/></g></g><g transform="translate(139.00 179.00) scale(3.8333)" fill="url(#gradB)"><path d="M18.68 12.32a4.49 4.49 0 0 0-6.36.01a4.49 4.49 0 0 0 0 6.36a4.51 4.51 0 0 0 5.57.63L21 22.39L22.39 21l-3.09-3.11c1.13-1.77.87-4.09-.62-5.57m-1.41 4.95c-.98.98-2.56.97-3.54 0c-.97-.98-.97-2.56.01-3.54c.97-.97 2.55-.97 3.53 0c.97.98.97 2.56 0 3.54M10.9 20.1a6.5 6.5 0 0 1-1.48-2.32C6.27 17.25 4 15.76 4 14v3c0 2.21 3.58 4 8 4c-.4-.26-.77-.56-1.1-.9M4 9v3c0 1.68 2.07 3.12 5 3.7v-.2c0-.93.2-1.85.58-2.69C6.34 12.3 4 10.79 4 9m8-6C7.58 3 4 4.79 4 7c0 2 3 3.68 6.85 4h.05c1.2-1.26 2.86-2 4.6-2c.91 0 1.81.19 2.64.56A3.22 3.22 0 0 0 20 7c0-2.21-3.58-4-8-4"/></g>
<text x="300" y="195" font-family="'Inter','Segoe UI','Helvetica Neue',-apple-system,system-ui,'Noto Sans CJK TC','PingFang TC','Microsoft JhengHei',sans-serif" font-size="24" font-weight="600" letter-spacing="3" fill="#f59e0b" fill-opacity="0.85">DOCS · RETRIEVAL · ASK API</text>
<text x="300" y="266" font-family="'Inter','Segoe UI','Helvetica Neue',-apple-system,system-ui,'Noto Sans CJK TC','PingFang TC','Microsoft JhengHei',sans-serif" font-size="76" font-weight="800" fill="#ffffff" letter-spacing="-1">Company AI Assistant<tspan dx="22" font-size="32" font-weight="700" letter-spacing="2" fill="#f59e0b">TEMPLATE</tspan></text>
<rect x="302" y="292" width="120" height="4" rx="2" fill="url(#gradB)"/>
<text x="300" y="346" font-family="'Inter','Segoe UI','Helvetica Neue',-apple-system,system-ui,'Noto Sans CJK TC','PingFang TC','Microsoft JhengHei',sans-serif" font-size="30" font-weight="500" fill="#ffffff" fill-opacity="0.78">用最小成本,把公司文件接上 AI</text>
<rect x="300" y="430" width="151" height="50" rx="25" fill="#ffffff" fill-opacity="0.05"/>
<rect x="300" y="430" width="151" height="50" rx="25" fill="none" stroke="#ffffff" stroke-opacity="0.10" stroke-width="1"/>
<g transform="translate(318.00 443.00) scale(1.0000)" fill="#ffffff" opacity="0.92"><path d="M12 .0387C5.3729.0384.0003 5.3931 0 11.9988c-.001 6.6066 5.372 11.9628 12 11.9625 6.628.0003 12.001-5.3559 12-11.9625-.0003-6.6057-5.3729-11.9604-12-11.96m-.829 5.4153h7.55l-7.5805 5.3284h5.1828L5.279 18.5436q2.9466-6.5444 5.892-13.0896"/></g>
<text x="348" y="462" font-family="'Inter','Segoe UI','Helvetica Neue',-apple-system,system-ui,'Noto Sans CJK TC','PingFang TC','Microsoft JhengHei',sans-serif" font-size="20" font-weight="600" fill="#ffffff" fill-opacity="0.85">FastAPI</text>
<rect x="467" y="430" width="138" height="50" rx="25" fill="#ffffff" fill-opacity="0.05"/>
<rect x="467" y="430" width="138" height="50" rx="25" fill="none" stroke="#ffffff" stroke-opacity="0.10" stroke-width="1"/>
<g transform="translate(485.00 443.00) scale(1.0000)" fill="#ffffff" opacity="0.92"><path d="M21.678.521c-1.032-.92-2.28-.55-3.513.544a8.71 8.71 0 0 0-.547.535c-2.109 2.237-4.066 6.38-4.674 9.544.237.48.422 1.093.544 1.561a13.044 13.044 0 0 1 .164.703s-.019-.071-.096-.296l-.05-.146a1.689 1.689 0 0 0-.033-.08c-.138-.32-.518-.995-.686-1.289-.143.423-.27.818-.376 1.176.484.884.778 2.4.778 2.4s-.025-.099-.147-.442c-.107-.303-.644-1.244-.772-1.464-.217.804-.304 1.346-.226 1.478.152.256.296.698.422 1.186.286 1.1.485 2.44.485 2.44l.017.224a22.41 22.41 0 0 0 .056 2.748c.095 1.146.273 2.13.5 2.657l.155-.084c-.334-1.038-.47-2.399-.41-3.967.09-2.398.642-5.29 1.661-8.304 1.723-4.55 4.113-8.201 6.3-9.945-1.993 1.8-4.692 7.63-5.5 9.788-.904 2.416-1.545 4.684-1.931 6.857.666-2.037 2.821-2.912 2.821-2.912s1.057-1.304 2.292-3.166c-.74.169-1.955.458-2.362.629-.6.251-.762.337-.762.337s1.945-1.184 3.613-1.72C21.695 7.9 24.195 2.767 21.678.521m-18.573.543A1.842 1.842 0 0 0 1.27 2.9v16.608a1.84 1.84 0 0 0 1.835 1.834h9.418a22.953 22.953 0 0 1-.052-2.707c-.006-.062-.011-.141-.016-.2a27.01 27.01 0 0 0-.473-2.378c-.121-.47-.275-.898-.369-1.057-.116-.197-.098-.31-.097-.432 0-.12.015-.245.037-.386a9.98 9.98 0 0 1 .234-1.045l.217-.028c-.017-.035-.014-.065-.031-.097l-.041-.381a32.8 32.8 0 0 1 .382-1.194l.2-.019c-.008-.016-.01-.038-.018-.053l-.043-.316c.63-3.28 2.587-7.443 4.8-9.791.066-.069.133-.128.198-.194Z"/></g>
<text x="515" y="462" font-family="'Inter','Segoe UI','Helvetica Neue',-apple-system,system-ui,'Noto Sans CJK TC','PingFang TC','Microsoft JhengHei',sans-serif" font-size="20" font-weight="600" fill="#ffffff" fill-opacity="0.85">SQLite</text>
<rect x="621" y="430" width="138" height="50" rx="25" fill="#ffffff" fill-opacity="0.05"/>
<rect x="621" y="430" width="138" height="50" rx="25" fill="none" stroke="#ffffff" stroke-opacity="0.10" stroke-width="1"/>
<g transform="translate(639.00 443.00) scale(1.0000)" fill="#ffffff" opacity="0.92"><path d="M14.25.18l.9.2.73.26.59.3.45.32.34.34.25.34.16.33.1.3.04.26.02.2-.01.13V8.5l-.05.63-.13.55-.21.46-.26.38-.3.31-.33.25-.35.19-.35.14-.33.1-.3.07-.26.04-.21.02H8.77l-.69.05-.59.14-.5.22-.41.27-.33.32-.27.35-.2.36-.15.37-.1.35-.07.32-.04.27-.02.21v3.06H3.17l-.21-.03-.28-.07-.32-.12-.35-.18-.36-.26-.36-.36-.35-.46-.32-.59-.28-.73-.21-.88-.14-1.05-.05-1.23.06-1.22.16-1.04.24-.87.32-.71.36-.57.4-.44.42-.33.42-.24.4-.16.36-.1.32-.05.24-.01h.16l.06.01h8.16v-.83H6.18l-.01-2.75-.02-.37.05-.34.11-.31.17-.28.25-.26.31-.23.38-.2.44-.18.51-.15.58-.12.64-.1.71-.06.77-.04.84-.02 1.27.05zm-6.3 1.98l-.23.33-.08.41.08.41.23.34.33.22.41.09.41-.09.33-.22.23-.34.08-.41-.08-.41-.23-.33-.33-.22-.41-.09-.41.09zm13.09 3.95l.28.06.32.12.35.18.36.27.36.35.35.47.32.59.28.73.21.88.14 1.04.05 1.23-.06 1.23-.16 1.04-.24.86-.32.71-.36.57-.4.45-.42.33-.42.24-.4.16-.36.09-.32.05-.24.02-.16-.01h-8.22v.82h5.84l.01 2.76.02.36-.05.34-.11.31-.17.29-.25.25-.31.24-.38.2-.44.17-.51.15-.58.13-.64.09-.71.07-.77.04-.84.01-1.27-.04-1.07-.14-.9-.2-.73-.25-.59-.3-.45-.33-.34-.34-.25-.34-.16-.33-.1-.3-.04-.25-.02-.2.01-.13v-5.34l.05-.64.13-.54.21-.46.26-.38.3-.32.33-.24.35-.2.35-.14.33-.1.3-.06.26-.04.21-.02.13-.01h5.84l.69-.05.59-.14.5-.21.41-.28.33-.32.27-.35.2-.36.15-.36.1-.35.07-.32.04-.28.02-.21V6.07h2.09l.14.01zm-6.47 14.25l-.23.33-.08.41.08.41.23.33.33.23.41.08.41-.08.33-.23.23-.33.08-.41-.08-.41-.23-.33-.33-.23-.41-.08-.41.08z"/></g>
<text x="669" y="462" font-family="'Inter','Segoe UI','Helvetica Neue',-apple-system,system-ui,'Noto Sans CJK TC','PingFang TC','Microsoft JhengHei',sans-serif" font-size="20" font-weight="600" fill="#ffffff" fill-opacity="0.85">Python</text>
<rect x="775" y="430" width="164" height="50" rx="25" fill="#ffffff" fill-opacity="0.05"/>
<rect x="775" y="430" width="164" height="50" rx="25" fill="none" stroke="#ffffff" stroke-opacity="0.10" stroke-width="1"/>
<g transform="translate(793.00 443.00) scale(1.0000)" fill="#ffffff" fill-rule="evenodd" opacity="0.92"><path d="M4.709 15.955l4.72-2.647.08-.23-.08-.128H9.2l-.79-.048-2.698-.073-2.339-.097-2.266-.122-.571-.121L0 11.784l.055-.352.48-.321.686.06 1.52.103 2.278.158 1.652.097 2.449.255h.389l.055-.157-.134-.098-.103-.097-2.358-1.596-2.552-1.688-1.336-.972-.724-.491-.364-.462-.158-1.008.656-.722.881.06.225.061.893.686 1.908 1.476 2.491 1.833.365.304.145-.103.019-.073-.164-.274-1.355-2.446-1.446-2.49-.644-1.032-.17-.619a2.97 2.97 0 01-.104-.729L6.283.134 6.696 0l.996.134.42.364.62 1.414 1.002 2.229 1.555 3.03.456.898.243.832.091.255h.158V9.01l.128-1.706.237-2.095.23-2.695.08-.76.376-.91.747-.492.584.28.48.685-.067.444-.286 1.851-.559 2.903-.364 1.942h.212l.243-.242.985-1.306 1.652-2.064.73-.82.85-.904.547-.431h1.033l.76 1.129-.34 1.166-1.064 1.347-.881 1.142-1.264 1.7-.79 1.36.073.11.188-.02 2.856-.606 1.543-.28 1.841-.315.833.388.091.395-.328.807-1.969.486-2.309.462-3.439.813-.042.03.049.061 1.549.146.662.036h1.622l3.02.225.79.522.474.638-.079.485-1.215.62-1.64-.389-3.829-.91-1.312-.329h-.182v.11l1.093 1.068 2.006 1.81 2.509 2.33.127.578-.322.455-.34-.049-2.205-1.657-.851-.747-1.926-1.62h-.128v.17l.444.649 2.345 3.521.122 1.08-.17.353-.608.213-.668-.122-1.374-1.925-1.415-2.167-1.143-1.943-.14.08-.674 7.254-.316.37-.729.28-.607-.461-.322-.747.322-1.476.389-1.924.315-1.53.286-1.9.17-.632-.012-.042-.14.018-1.434 1.967-2.18 2.945-1.726 1.845-.414.164-.717-.37.067-.662.401-.589 2.388-3.036 1.44-1.882.93-1.086-.006-.158h-.055L4.132 18.56l-1.13.146-.487-.456.061-.746.231-.243 1.908-1.312-.006.006z"></path></g>
<text x="823" y="462" font-family="'Inter','Segoe UI','Helvetica Neue',-apple-system,system-ui,'Noto Sans CJK TC','PingFang TC','Microsoft JhengHei',sans-serif" font-size="20" font-weight="600" fill="#ffffff" fill-opacity="0.85">AI / LLM</text>
</svg>